<svg width="449" height="66" viewBox="0 0 449 66" fill="none" xmlns="http://www.w3.org/2000/svg">
    <path d="M36.61 64.9293H0V3.51201H13.8466V53.708H36.61V64.9293Z" fill="#1E1E1E" />
    <path
        d="M50.4566 14.1337C48.1703 14.1337 46.2983 13.4627 44.8408 12.1207C43.3832 10.7502 42.6545 9.07982 42.6545 7.10967C42.6545 5.08241 43.3832 3.42635 44.8408 2.14147C46.2983 0.856587 48.1703 0.214147 50.4566 0.214147C52.7715 0.214147 54.6435 0.856587 56.0724 2.14147C57.53 3.42635 58.2587 5.08241 58.2587 7.10967C58.2587 9.16548 57.53 10.8501 56.0724 12.1635C54.6435 13.477 52.7715 14.1337 50.4566 14.1337ZM57.1441 64.9293H43.5976V21.072H57.1441V64.9293Z"
        fill="#1E1E1E" />
    <path d="M82.0938 64.9293H68.5472V0H82.0938V64.9293Z" fill="#F0414E" />
    <path d="M107.043 64.9293H93.4969V0H107.043V64.9293Z" fill="#F0414E" />
    <path
        d="M157.886 46.8553H129.25C129.707 53.2226 133.722 56.4062 141.296 56.4062C146.126 56.4062 150.37 55.2641 154.028 52.9799V62.745C149.969 64.915 144.697 66 138.209 66C131.121 66 125.62 64.0441 121.705 60.1324C117.789 56.1921 115.832 50.7099 115.832 43.6859C115.832 36.4049 117.946 30.6372 122.176 26.3829C126.406 22.1285 131.607 20.0013 137.78 20.0013C144.182 20.0013 149.126 21.9001 152.613 25.6976C156.128 29.4951 157.886 34.6489 157.886 41.159V46.8553ZM145.325 38.5464C145.325 32.2648 142.782 29.1239 137.695 29.1239C135.523 29.1239 133.636 30.0234 132.036 31.8222C130.464 33.621 129.507 35.8624 129.164 38.5464H145.325Z"
        fill="#1E1E1E" />
    <path
        d="M208.342 64.9293H194.839V40.5594C194.839 33.7638 192.41 30.366 187.551 30.366C185.208 30.366 183.279 31.2654 181.764 33.0642C180.249 34.8631 179.492 37.1473 179.492 39.9169V64.9293H165.945V21.072H179.492V28.0104H179.663C182.893 22.671 187.594 20.0013 193.767 20.0013C203.484 20.0013 208.342 26.026 208.342 38.0753V64.9293Z"
        fill="#1E1E1E" />
    <path
        d="M245.638 64.4153C243.638 65.4718 240.623 66 236.593 66C227.048 66 222.275 61.0461 222.275 51.1382V31.0513H215.159V21.072H222.275V11.6067L235.779 7.75211V21.072H245.638V31.0513H235.779V48.7826C235.779 53.3511 237.593 55.6353 241.223 55.6353C242.652 55.6353 244.124 55.2213 245.638 54.3933V64.4153Z"
        fill="#1E1E1E" />
    <path
        d="M295.452 64.9293H281.948V40.0026C281.948 33.5782 279.605 30.366 274.918 30.366C272.517 30.366 270.574 31.2654 269.088 33.0642C267.601 34.8631 266.858 37.1473 266.858 39.9169V64.9293H253.312V0H266.858V27.5821H267.03C270.345 22.5282 274.846 20.0013 280.534 20.0013C290.479 20.0013 295.452 25.9974 295.452 37.9896V64.9293Z"
        fill="#1E1E1E" />
    <path
        d="M342.736 64.9293H329.918V58.6334H329.747C326.803 63.5445 322.445 66 316.672 66C312.414 66 309.056 64.8008 306.598 62.4023C304.169 59.9753 302.954 56.7489 302.954 52.7229C302.954 44.2141 307.998 39.303 318.087 37.9896L330.004 36.4049C330.004 31.608 327.404 29.2096 322.202 29.2096C316.972 29.2096 311.999 30.7657 307.284 33.878V23.6846C309.17 22.7138 311.742 21.8572 315 21.1149C318.287 20.3725 321.273 20.0013 323.96 20.0013C336.477 20.0013 342.736 26.2401 342.736 38.7177V64.9293ZM330.004 47.1123V44.157L322.031 45.1849C317.629 45.756 315.429 47.7404 315.429 51.1382C315.429 52.6801 315.958 53.9507 317.015 54.95C318.101 55.9208 319.559 56.4062 321.388 56.4062C323.931 56.4062 326.003 55.5354 327.604 53.7936C329.204 52.0234 330.004 49.7962 330.004 47.1123Z"
        fill="#1E1E1E" />
    <path d="M367 64.9293H353.453V0H367V64.9293Z" fill="#1E1E1E" />
    <path d="M391 32.041L449 15L432.229 57L417.03 46.1557L409.169 53.5574L406.723 39.4426L391 32.041Z" fill="#F0414E" />
    <path d="M407.047 39.9994L449 15L416.893 41.9866L417.24 46.5134L409.43 54L407 39.7232L407.047 39.9994Z"
        fill="#F0414E" />
</svg>